<?xml version="1.0" encoding="utf-8" standalone="no"?>
<!DOCTYPE svg PUBLIC "-//W3C//DTD SVG 1.1//EN"
  "http://www.w3.org/Graphics/SVG/1.1/DTD/svg11.dtd">
<svg xmlns:xlink="http://www.w3.org/1999/xlink" width="258.195pt" height="164.445pt" viewBox="0 0 258.195 164.445" xmlns="http://www.w3.org/2000/svg" version="1.1">
 <metadata>
  <rdf:RDF xmlns:dc="http://purl.org/dc/elements/1.1/" xmlns:cc="http://creativecommons.org/ns#" xmlns:rdf="http://www.w3.org/1999/02/22-rdf-syntax-ns#">
   <cc:Work>
    <dc:type rdf:resource="http://purl.org/dc/dcmitype/StillImage"/>
    <dc:date>2025-09-03T06:45:07.753793</dc:date>
    <dc:format>image/svg+xml</dc:format>
    <dc:creator>
     <cc:Agent>
      <dc:title>Matplotlib v3.10.0, https://matplotlib.org/</dc:title>
     </cc:Agent>
    </dc:creator>
   </cc:Work>
  </rdf:RDF>
 </metadata>
 <defs>
  <style type="text/css">*{stroke-linejoin: round; stroke-linecap: butt}</style>
 </defs>
 <g id="figure_1">
  <g id="patch_1">
   <path d="M 0 164.445 
L 258.195 164.445 
L 258.195 0 
L 0 0 
z
" style="fill: #ffffff"/>
  </g>
  <g id="axes_1">
   <g id="patch_2">
    <path d="M 38.665 130.76 
L 250.995 130.76 
L 250.995 7.2 
L 38.665 7.2 
z
" style="fill: #ffffff"/>
   </g>
   <g id="FillBetweenPolyCollection_1">
    <defs>
     <path id="ma41c95c84c" d="M 38.665 -150.743345 
L 38.665 -145.164148 
L 40.809747 -140.928507 
L 42.954495 -135.33383 
L 45.099242 -131.737143 
L 47.24399 -126.885831 
L 49.388737 -123.042418 
L 51.533485 -119.676803 
L 53.678232 -116.935752 
L 55.82298 -113.549083 
L 57.967727 -110.038708 
L 60.112475 -106.928588 
L 62.257222 -104.794448 
L 64.40197 -102.399563 
L 66.546717 -100.751772 
L 68.691465 -99.029261 
L 70.836212 -97.070062 
L 72.98096 -95.385645 
L 75.125707 -93.514535 
L 77.270455 -91.172732 
L 79.415202 -89.388608 
L 81.559949 -88.147897 
L 83.704697 -86.539165 
L 85.849444 -85.343093 
L 87.994192 -84.284313 
L 90.138939 -83.140058 
L 92.283687 -81.627443 
L 94.428434 -80.684393 
L 96.573182 -80.590496 
L 98.717929 -79.389694 
L 100.862677 -78.133249 
L 103.007424 -77.395228 
L 105.152172 -76.206864 
L 107.296919 -76.269058 
L 109.441667 -75.557279 
L 111.586414 -74.687692 
L 113.731162 -74.119091 
L 115.875909 -73.123528 
L 118.020657 -72.010419 
L 120.165404 -71.513987 
L 122.310152 -71.169421 
L 124.454899 -71.188085 
L 126.599646 -69.439926 
L 128.744394 -68.949671 
L 130.889141 -68.322386 
L 133.033889 -66.780626 
L 135.178636 -65.586366 
L 137.323384 -65.046885 
L 139.468131 -64.759658 
L 141.612879 -63.777421 
L 143.757626 -62.834691 
L 145.902374 -62.420603 
L 148.047121 -60.470997 
L 150.191869 -60.17517 
L 152.336616 -59.250711 
L 154.481364 -59.038549 
L 156.626111 -58.585964 
L 158.770859 -58.598876 
L 160.915606 -58.47349 
L 163.060354 -58.476241 
L 165.205101 -57.848106 
L 167.349848 -56.327524 
L 169.494596 -56.311744 
L 171.639343 -55.520094 
L 173.784091 -54.974748 
L 175.928838 -54.194232 
L 178.073586 -53.560843 
L 180.218333 -53.061825 
L 182.363081 -52.758013 
L 184.507828 -52.340818 
L 186.652576 -51.698286 
L 188.797323 -51.457891 
L 190.942071 -50.793298 
L 193.086818 -50.806891 
L 195.231566 -50.49869 
L 197.376313 -49.889583 
L 199.521061 -49.383843 
L 201.665808 -49.476896 
L 203.810556 -48.909126 
L 205.955303 -49.06397 
L 208.100051 -49.078204 
L 210.244798 -48.995968 
L 212.389545 -48.66893 
L 214.534293 -48.652106 
L 216.67904 -48.408796 
L 218.823788 -48.341077 
L 220.968535 -48.147196 
L 223.113283 -47.621079 
L 225.25803 -47.276881 
L 227.402778 -46.991967 
L 229.547525 -46.596303 
L 231.692273 -46.665893 
L 233.83702 -45.872686 
L 235.981768 -45.799253 
L 238.126515 -45.616921 
L 240.271263 -45.19726 
L 242.41601 -44.932298 
L 244.560758 -44.923172 
L 246.705505 -45.167988 
L 248.850253 -45.163037 
L 250.995 -44.881553 
L 250.995 -72.506214 
L 250.995 -72.506214 
L 248.850253 -73.115268 
L 246.705505 -73.104932 
L 244.560758 -73.073442 
L 242.41601 -73.220894 
L 240.271263 -73.574683 
L 238.126515 -73.699625 
L 235.981768 -73.686846 
L 233.83702 -73.991597 
L 231.692273 -74.209904 
L 229.547525 -74.715496 
L 227.402778 -74.88106 
L 225.25803 -75.025103 
L 223.113283 -75.145386 
L 220.968535 -75.501342 
L 218.823788 -75.432862 
L 216.67904 -75.441254 
L 214.534293 -75.957223 
L 212.389545 -76.220202 
L 210.244798 -76.91466 
L 208.100051 -77.527745 
L 205.955303 -77.565438 
L 203.810556 -78.599221 
L 201.665808 -79.06772 
L 199.521061 -79.545534 
L 197.376313 -79.329024 
L 195.231566 -79.38768 
L 193.086818 -79.841919 
L 190.942071 -80.495035 
L 188.797323 -80.521704 
L 186.652576 -81.279528 
L 184.507828 -81.23922 
L 182.363081 -81.189469 
L 180.218333 -81.661992 
L 178.073586 -82.465632 
L 175.928838 -83.113418 
L 173.784091 -83.821586 
L 171.639343 -84.155917 
L 169.494596 -84.615389 
L 167.349848 -85.137795 
L 165.205101 -85.951782 
L 163.060354 -85.82237 
L 160.915606 -85.843744 
L 158.770859 -85.949611 
L 156.626111 -86.668642 
L 154.481364 -86.963684 
L 152.336616 -87.060612 
L 150.191869 -87.742761 
L 148.047121 -88.336364 
L 145.902374 -88.483733 
L 143.757626 -88.908824 
L 141.612879 -89.343282 
L 139.468131 -89.974221 
L 137.323384 -90.073462 
L 135.178636 -90.764121 
L 133.033889 -91.156181 
L 130.889141 -91.961081 
L 128.744394 -92.368331 
L 126.599646 -92.779998 
L 124.454899 -93.706178 
L 122.310152 -94.254042 
L 120.165404 -94.361088 
L 118.020657 -94.397008 
L 115.875909 -95.002092 
L 113.731162 -96.093801 
L 111.586414 -96.577251 
L 109.441667 -97.851357 
L 107.296919 -98.721022 
L 105.152172 -99.104652 
L 103.007424 -100.128718 
L 100.862677 -100.90535 
L 98.717929 -102.200098 
L 96.573182 -102.938247 
L 94.428434 -104.750069 
L 92.283687 -106.03237 
L 90.138939 -106.886619 
L 87.994192 -108.723931 
L 85.849444 -110.410716 
L 83.704697 -111.526408 
L 81.559949 -112.662788 
L 79.415202 -114.651278 
L 77.270455 -115.912397 
L 75.125707 -117.764175 
L 72.98096 -119.830911 
L 70.836212 -121.27079 
L 68.691465 -122.454506 
L 66.546717 -124.280857 
L 64.40197 -126.377427 
L 62.257222 -129.063521 
L 60.112475 -130.6593 
L 57.967727 -132.703224 
L 55.82298 -135.2612 
L 53.678232 -136.472419 
L 51.533485 -137.992942 
L 49.388737 -140.63565 
L 47.24399 -142.912444 
L 45.099242 -144.664674 
L 42.954495 -145.164148 
L 40.809747 -149.590077 
L 38.665 -150.743345 
z
"/>
    </defs>
    <g clip-path="url(#p960dbf2274)">
     <use xlink:href="#ma41c95c84c" x="0" y="164.445" style="fill: #d9d9d9; fill-opacity: 0.15"/>
    </g>
   </g>
   <g id="FillBetweenPolyCollection_2">
    <defs>
     <path id="mf4e8aec28e" d="M 38.665 -151.628636 
L 38.665 -143.357743 
L 40.809747 -136.292851 
L 42.954495 -128.830083 
L 45.099242 -121.056035 
L 47.24399 -114.346311 
L 49.388737 -107.859283 
L 51.533485 -101.83764 
L 53.678232 -97.082372 
L 55.82298 -92.52609 
L 57.967727 -89.247707 
L 60.112475 -84.912739 
L 62.257222 -82.311567 
L 64.40197 -80.459439 
L 66.546717 -76.898961 
L 68.691465 -75.467908 
L 70.836212 -72.763571 
L 72.98096 -70.985946 
L 75.125707 -67.708221 
L 77.270455 -65.563842 
L 79.415202 -63.822598 
L 81.559949 -63.301459 
L 83.704697 -61.873486 
L 85.849444 -59.684618 
L 87.994192 -58.052675 
L 90.138939 -56.197107 
L 92.283687 -54.442016 
L 94.428434 -53.098949 
L 96.573182 -52.635513 
L 98.717929 -51.943568 
L 100.862677 -50.19954 
L 103.007424 -48.690483 
L 105.152172 -48.123562 
L 107.296919 -47.872045 
L 109.441667 -47.365142 
L 111.586414 -46.81706 
L 113.731162 -46.294254 
L 115.875909 -45.701648 
L 118.020657 -44.941413 
L 120.165404 -45.072486 
L 122.310152 -44.724603 
L 124.454899 -44.324061 
L 126.599646 -44.271081 
L 128.744394 -43.86418 
L 130.889141 -43.500654 
L 133.033889 -43.196513 
L 135.178636 -42.923718 
L 137.323384 -42.728147 
L 139.468131 -42.248755 
L 141.612879 -41.790007 
L 143.757626 -41.790463 
L 145.902374 -41.701245 
L 148.047121 -41.442763 
L 150.191869 -41.313343 
L 152.336616 -40.871468 
L 154.481364 -40.753658 
L 156.626111 -40.63851 
L 158.770859 -40.620418 
L 160.915606 -40.481403 
L 163.060354 -40.455434 
L 165.205101 -40.303522 
L 167.349848 -40.194793 
L 169.494596 -40.128814 
L 171.639343 -40.102068 
L 173.784091 -40.03792 
L 175.928838 -40.144445 
L 178.073586 -39.96539 
L 180.218333 -39.936056 
L 182.363081 -39.934533 
L 184.507828 -39.854724 
L 186.652576 -39.793324 
L 188.797323 -39.760798 
L 190.942071 -39.713649 
L 193.086818 -39.700443 
L 195.231566 -39.684262 
L 197.376313 -39.658566 
L 199.521061 -39.612645 
L 201.665808 -39.616523 
L 203.810556 -39.580345 
L 205.955303 -39.605323 
L 208.100051 -39.564576 
L 210.244798 -39.555275 
L 212.389545 -39.539743 
L 214.534293 -39.516627 
L 216.67904 -39.515854 
L 218.823788 -39.475442 
L 220.968535 -39.466066 
L 223.113283 -39.467501 
L 225.25803 -39.454085 
L 227.402778 -39.428809 
L 229.547525 -39.422305 
L 231.692273 -39.42038 
L 233.83702 -39.412713 
L 235.981768 -39.40452 
L 238.126515 -39.403825 
L 240.271263 -39.401631 
L 242.41601 -39.396631 
L 244.560758 -39.383302 
L 246.705505 -39.375049 
L 248.850253 -39.369803 
L 250.995 -39.359882 
L 250.995 -53.965036 
L 250.995 -53.965036 
L 248.850253 -54.100539 
L 246.705505 -54.939504 
L 244.560758 -55.130554 
L 242.41601 -54.96301 
L 240.271263 -54.028935 
L 238.126515 -52.962568 
L 235.981768 -53.430404 
L 233.83702 -54.454555 
L 231.692273 -53.834161 
L 229.547525 -54.941369 
L 227.402778 -55.478526 
L 225.25803 -56.556782 
L 223.113283 -56.276577 
L 220.968535 -56.590702 
L 218.823788 -57.813148 
L 216.67904 -58.081083 
L 214.534293 -56.460673 
L 212.389545 -57.353867 
L 210.244798 -58.514986 
L 208.100051 -58.765733 
L 205.955303 -59.948686 
L 203.810556 -59.956017 
L 201.665808 -59.766085 
L 199.521061 -60.920329 
L 197.376313 -60.311946 
L 195.231566 -59.404724 
L 193.086818 -60.283683 
L 190.942071 -61.414455 
L 188.797323 -61.969618 
L 186.652576 -61.452735 
L 184.507828 -62.756824 
L 182.363081 -63.31276 
L 180.218333 -63.363452 
L 178.073586 -62.885844 
L 175.928838 -64.611532 
L 173.784091 -63.975614 
L 171.639343 -65.339866 
L 169.494596 -65.758762 
L 167.349848 -66.85704 
L 165.205101 -66.159919 
L 163.060354 -65.807654 
L 160.915606 -67.437929 
L 158.770859 -67.695477 
L 156.626111 -68.098867 
L 154.481364 -68.240473 
L 152.336616 -69.006444 
L 150.191869 -70.016006 
L 148.047121 -70.050676 
L 145.902374 -71.022537 
L 143.757626 -71.450883 
L 141.612879 -71.031286 
L 139.468131 -70.719553 
L 137.323384 -71.684597 
L 135.178636 -71.97483 
L 133.033889 -73.125471 
L 130.889141 -73.078455 
L 128.744394 -73.119955 
L 126.599646 -74.260009 
L 124.454899 -74.006024 
L 122.310152 -73.983312 
L 120.165404 -74.797024 
L 118.020657 -75.15695 
L 115.875909 -76.160049 
L 113.731162 -76.422448 
L 111.586414 -77.104597 
L 109.441667 -77.211037 
L 107.296919 -77.940347 
L 105.152172 -78.466143 
L 103.007424 -80.045982 
L 100.862677 -80.948913 
L 98.717929 -81.677761 
L 96.573182 -82.728095 
L 94.428434 -82.913473 
L 92.283687 -84.017886 
L 90.138939 -85.12734 
L 87.994192 -86.528522 
L 85.849444 -87.632068 
L 83.704697 -89.471517 
L 81.559949 -90.820088 
L 79.415202 -92.254239 
L 77.270455 -93.128554 
L 75.125707 -94.242588 
L 72.98096 -96.034283 
L 70.836212 -97.816627 
L 68.691465 -99.264353 
L 66.546717 -102.189261 
L 64.40197 -105.206614 
L 62.257222 -109.059924 
L 60.112475 -112.68964 
L 57.967727 -117.152602 
L 55.82298 -120.213666 
L 53.678232 -123.940671 
L 51.533485 -127.71429 
L 49.388737 -131.991846 
L 47.24399 -136.263098 
L 45.099242 -141.432333 
L 42.954495 -144.537729 
L 40.809747 -147.423089 
L 38.665 -151.628636 
z
"/>
    </defs>
    <g clip-path="url(#p960dbf2274)">
     <use xlink:href="#mf4e8aec28e" x="0" y="164.445" style="fill: #c3c3c3; fill-opacity: 0.15"/>
    </g>
   </g>
   <g id="FillBetweenPolyCollection_3">
    <defs>
     <path id="mac59202feb" d="M 38.665 -146.570036 
L 38.665 -135.938571 
L 40.809747 -123.706016 
L 42.954495 -111.886118 
L 45.099242 -104.138623 
L 47.24399 -96.371954 
L 49.388737 -89.781804 
L 51.533485 -82.95483 
L 53.678232 -77.364214 
L 55.82298 -72.998615 
L 57.967727 -68.885708 
L 60.112475 -66.217898 
L 62.257222 -63.048063 
L 64.40197 -58.842687 
L 66.546717 -57.637752 
L 68.691465 -53.638428 
L 70.836212 -51.203529 
L 72.98096 -49.686958 
L 75.125707 -48.158456 
L 77.270455 -47.365971 
L 79.415202 -45.814801 
L 81.559949 -44.571828 
L 83.704697 -43.894837 
L 85.849444 -43.105529 
L 87.994192 -42.271816 
L 90.138939 -41.95239 
L 92.283687 -41.648282 
L 94.428434 -41.247444 
L 96.573182 -40.972467 
L 98.717929 -40.565965 
L 100.862677 -40.282747 
L 103.007424 -40.167719 
L 105.152172 -40.137322 
L 107.296919 -39.922273 
L 109.441667 -39.853201 
L 111.586414 -39.804698 
L 113.731162 -39.705242 
L 115.875909 -39.650496 
L 118.020657 -39.600996 
L 120.165404 -39.570978 
L 122.310152 -39.516092 
L 124.454899 -39.462969 
L 126.599646 -39.449044 
L 128.744394 -39.407156 
L 130.889141 -39.407221 
L 133.033889 -39.400892 
L 135.178636 -39.378105 
L 137.323384 -39.360924 
L 139.468131 -39.355126 
L 141.612879 -39.343389 
L 143.757626 -39.339283 
L 145.902374 -39.336296 
L 148.047121 -39.329899 
L 150.191869 -39.327126 
L 152.336616 -39.320538 
L 154.481364 -39.320754 
L 156.626111 -39.316357 
L 158.770859 -39.312543 
L 160.915606 -39.310586 
L 163.060354 -39.309122 
L 165.205101 -39.307945 
L 167.349848 -39.306933 
L 169.494596 -39.305547 
L 171.639343 -39.305253 
L 173.784091 -39.304108 
L 175.928838 -39.303699 
L 178.073586 -39.303731 
L 180.218333 -39.303251 
L 182.363081 -39.302776 
L 184.507828 -39.302504 
L 186.652576 -39.302086 
L 188.797323 -39.301942 
L 190.942071 -39.30189 
L 193.086818 -39.301792 
L 195.231566 -39.301738 
L 197.376313 -39.301667 
L 199.521061 -39.301662 
L 201.665808 -39.301606 
L 203.810556 -39.301535 
L 205.955303 -39.301481 
L 208.100051 -39.301493 
L 210.244798 -39.301456 
L 212.389545 -39.30145 
L 214.534293 -39.301429 
L 216.67904 -39.301423 
L 218.823788 -39.301405 
L 220.968535 -39.301397 
L 223.113283 -39.3014 
L 225.25803 -39.30139 
L 227.402778 -39.301387 
L 229.547525 -39.301386 
L 231.692273 -39.301383 
L 233.83702 -39.301381 
L 235.981768 -39.301381 
L 238.126515 -39.301376 
L 240.271263 -39.301373 
L 242.41601 -39.301373 
L 244.560758 -39.30137 
L 246.705505 -39.301368 
L 248.850253 -39.301367 
L 250.995 -39.301366 
L 250.995 -40.112761 
L 250.995 -40.112761 
L 248.850253 -40.134869 
L 246.705505 -40.128666 
L 244.560758 -40.085538 
L 242.41601 -40.126413 
L 240.271263 -40.120584 
L 238.126515 -40.349537 
L 235.981768 -40.355817 
L 233.83702 -40.550887 
L 231.692273 -40.408656 
L 229.547525 -40.660526 
L 227.402778 -40.732891 
L 225.25803 -40.846808 
L 223.113283 -40.933193 
L 220.968535 -41.376621 
L 218.823788 -41.120121 
L 216.67904 -41.220226 
L 214.534293 -41.014165 
L 212.389545 -41.031426 
L 210.244798 -41.257621 
L 208.100051 -41.935993 
L 205.955303 -41.864875 
L 203.810556 -41.731271 
L 201.665808 -42.155392 
L 199.521061 -42.264863 
L 197.376313 -42.358369 
L 195.231566 -43.073483 
L 193.086818 -43.439038 
L 190.942071 -43.742558 
L 188.797323 -44.254755 
L 186.652576 -44.415291 
L 184.507828 -44.833891 
L 182.363081 -44.806316 
L 180.218333 -45.225698 
L 178.073586 -45.917089 
L 175.928838 -45.086983 
L 173.784091 -45.935397 
L 171.639343 -46.068593 
L 169.494596 -46.177391 
L 167.349848 -47.097811 
L 165.205101 -46.687217 
L 163.060354 -47.563436 
L 160.915606 -48.366277 
L 158.770859 -47.591649 
L 156.626111 -47.273782 
L 154.481364 -48.417939 
L 152.336616 -49.116829 
L 150.191869 -49.099098 
L 148.047121 -49.832698 
L 145.902374 -51.495308 
L 143.757626 -51.305181 
L 141.612879 -50.66222 
L 139.468131 -52.513465 
L 137.323384 -52.57141 
L 135.178636 -53.741005 
L 133.033889 -53.469167 
L 130.889141 -54.029055 
L 128.744394 -54.382636 
L 126.599646 -56.174134 
L 124.454899 -56.252343 
L 122.310152 -56.738916 
L 120.165404 -58.165905 
L 118.020657 -58.404325 
L 115.875909 -59.687663 
L 113.731162 -59.079818 
L 111.586414 -59.84068 
L 109.441667 -58.482464 
L 107.296919 -60.523305 
L 105.152172 -62.662548 
L 103.007424 -62.437415 
L 100.862677 -64.393596 
L 98.717929 -65.972068 
L 96.573182 -67.148335 
L 94.428434 -68.445792 
L 92.283687 -69.626011 
L 90.138939 -70.560991 
L 87.994192 -70.804808 
L 85.849444 -71.63955 
L 83.704697 -72.793917 
L 81.559949 -73.441974 
L 79.415202 -73.906291 
L 77.270455 -75.279564 
L 75.125707 -78.239293 
L 72.98096 -79.483729 
L 70.836212 -81.467434 
L 68.691465 -84.481784 
L 66.546717 -86.971071 
L 64.40197 -89.696382 
L 62.257222 -92.850584 
L 60.112475 -95.281525 
L 57.967727 -100.420465 
L 55.82298 -103.880686 
L 53.678232 -107.745095 
L 51.533485 -112.336803 
L 49.388737 -118.056792 
L 47.24399 -124.004679 
L 45.099242 -128.300368 
L 42.954495 -134.01359 
L 40.809747 -140.389288 
L 38.665 -146.570036 
z
"/>
    </defs>
    <g clip-path="url(#p960dbf2274)">
     <use xlink:href="#mac59202feb" x="0" y="164.445" style="fill: #a5a5a5; fill-opacity: 0.15"/>
    </g>
   </g>
   <g id="FillBetweenPolyCollection_4">
    <defs>
     <path id="m2e0f146312" d="M 38.665 -143.517424 
L 38.665 -130.300761 
L 40.809747 -113.926107 
L 42.954495 -99.806518 
L 45.099242 -89.949481 
L 47.24399 -80.801643 
L 49.388737 -72.689528 
L 51.533485 -66.361873 
L 53.678232 -62.526489 
L 55.82298 -57.373616 
L 57.967727 -51.768107 
L 60.112475 -49.470967 
L 62.257222 -46.806224 
L 64.40197 -45.370499 
L 66.546717 -44.326609 
L 68.691465 -43.556397 
L 70.836212 -42.470175 
L 72.98096 -41.442431 
L 75.125707 -40.989735 
L 77.270455 -40.703419 
L 79.415202 -40.469499 
L 81.559949 -40.118765 
L 83.704697 -39.90918 
L 85.849444 -39.778051 
L 87.994192 -39.585142 
L 90.138939 -39.527121 
L 92.283687 -39.452948 
L 94.428434 -39.418169 
L 96.573182 -39.397385 
L 98.717929 -39.372093 
L 100.862677 -39.351516 
L 103.007424 -39.337056 
L 105.152172 -39.327023 
L 107.296919 -39.318253 
L 109.441667 -39.312259 
L 111.586414 -39.310299 
L 113.731162 -39.306724 
L 115.875909 -39.305215 
L 118.020657 -39.303887 
L 120.165404 -39.303029 
L 122.310152 -39.302784 
L 124.454899 -39.302445 
L 126.599646 -39.302304 
L 128.744394 -39.302157 
L 130.889141 -39.301934 
L 133.033889 -39.301762 
L 135.178636 -39.301615 
L 137.323384 -39.301561 
L 139.468131 -39.301491 
L 141.612879 -39.30147 
L 143.757626 -39.301438 
L 145.902374 -39.301402 
L 148.047121 -39.301388 
L 150.191869 -39.301382 
L 152.336616 -39.301372 
L 154.481364 -39.30137 
L 156.626111 -39.301368 
L 158.770859 -39.301367 
L 160.915606 -39.301366 
L 163.060354 -39.301365 
L 165.205101 -39.301365 
L 167.349848 -39.301365 
L 169.494596 -39.301364 
L 171.639343 -39.301364 
L 173.784091 -39.301364 
L 175.928838 -39.301364 
L 178.073586 -39.301364 
L 180.218333 -39.301364 
L 182.363081 -39.301364 
L 184.507828 -39.301364 
L 186.652576 -39.301364 
L 188.797323 -39.301364 
L 190.942071 -39.301364 
L 193.086818 -39.301364 
L 195.231566 -39.301364 
L 197.376313 -39.301364 
L 199.521061 -39.301364 
L 201.665808 -39.301364 
L 203.810556 -39.301364 
L 205.955303 -39.301364 
L 208.100051 -39.301364 
L 210.244798 -39.301364 
L 212.389545 -39.301364 
L 214.534293 -39.301364 
L 216.67904 -39.301364 
L 218.823788 -39.301364 
L 220.968535 -39.301364 
L 223.113283 -39.301364 
L 225.25803 -39.301364 
L 227.402778 -39.301364 
L 229.547525 -39.301364 
L 231.692273 -39.301364 
L 233.83702 -39.301364 
L 235.981768 -39.301364 
L 238.126515 -39.301364 
L 240.271263 -39.301364 
L 242.41601 -39.301364 
L 244.560758 -39.301364 
L 246.705505 -39.301364 
L 248.850253 -39.301364 
L 250.995 -39.301364 
L 250.995 -39.301365 
L 250.995 -39.301365 
L 248.850253 -39.301366 
L 246.705505 -39.301366 
L 244.560758 -39.301367 
L 242.41601 -39.301369 
L 240.271263 -39.301371 
L 238.126515 -39.301374 
L 235.981768 -39.301375 
L 233.83702 -39.301382 
L 231.692273 -39.301381 
L 229.547525 -39.301393 
L 227.402778 -39.301397 
L 225.25803 -39.301397 
L 223.113283 -39.301409 
L 220.968535 -39.301432 
L 218.823788 -39.301456 
L 216.67904 -39.301499 
L 214.534293 -39.301555 
L 212.389545 -39.301574 
L 210.244798 -39.30165 
L 208.100051 -39.301701 
L 205.955303 -39.301908 
L 203.810556 -39.301891 
L 201.665808 -39.302056 
L 199.521061 -39.302071 
L 197.376313 -39.302484 
L 195.231566 -39.302458 
L 193.086818 -39.303016 
L 190.942071 -39.303325 
L 188.797323 -39.303691 
L 186.652576 -39.305531 
L 184.507828 -39.305606 
L 182.363081 -39.305472 
L 180.218333 -39.307037 
L 178.073586 -39.310643 
L 175.928838 -39.313206 
L 173.784091 -39.316796 
L 171.639343 -39.315856 
L 169.494596 -39.321223 
L 167.349848 -39.325854 
L 165.205101 -39.330706 
L 163.060354 -39.333676 
L 160.915606 -39.345785 
L 158.770859 -39.359423 
L 156.626111 -39.3846 
L 154.481364 -39.386872 
L 152.336616 -39.406567 
L 150.191869 -39.44838 
L 148.047121 -39.494454 
L 145.902374 -39.521093 
L 143.757626 -39.641909 
L 141.612879 -39.694917 
L 139.468131 -39.859187 
L 137.323384 -39.820871 
L 135.178636 -39.848785 
L 133.033889 -39.862896 
L 130.889141 -39.920688 
L 128.744394 -40.304653 
L 126.599646 -40.726915 
L 124.454899 -40.682536 
L 122.310152 -40.794215 
L 120.165404 -41.358642 
L 118.020657 -41.882941 
L 115.875909 -42.389468 
L 113.731162 -42.993228 
L 111.586414 -43.904579 
L 109.441667 -44.861923 
L 107.296919 -45.017874 
L 105.152172 -46.233825 
L 103.007424 -46.150806 
L 100.862677 -47.987575 
L 98.717929 -48.81523 
L 96.573182 -49.496331 
L 94.428434 -51.221494 
L 92.283687 -53.54559 
L 90.138939 -55.06184 
L 87.994192 -57.487439 
L 85.849444 -57.612227 
L 83.704697 -60.190582 
L 81.559949 -62.186236 
L 79.415202 -64.371732 
L 77.270455 -64.591883 
L 75.125707 -66.004668 
L 72.98096 -68.802599 
L 70.836212 -70.185473 
L 68.691465 -70.660578 
L 66.546717 -72.532873 
L 64.40197 -73.851856 
L 62.257222 -77.226047 
L 60.112475 -79.146309 
L 57.967727 -82.685841 
L 55.82298 -86.276486 
L 53.678232 -92.012041 
L 51.533485 -95.087164 
L 49.388737 -102.892417 
L 47.24399 -110.206369 
L 45.099242 -118.39867 
L 42.954495 -125.006376 
L 40.809747 -134.207814 
L 38.665 -143.517424 
z
"/>
    </defs>
    <g clip-path="url(#p960dbf2274)">
     <use xlink:href="#m2e0f146312" x="0" y="164.445" style="fill: #888888; fill-opacity: 0.15"/>
    </g>
   </g>
   <g id="FillBetweenPolyCollection_5">
    <defs>
     <path id="m0c5cfa70d0" d="M 38.665 -140.138555 
L 38.665 -123.975146 
L 40.809747 -105.676485 
L 42.954495 -90.557727 
L 45.099242 -79.652218 
L 47.24399 -71.653934 
L 49.388737 -64.69612 
L 51.533485 -59.440922 
L 53.678232 -54.476858 
L 55.82298 -50.135268 
L 57.967727 -47.758131 
L 60.112475 -46.610857 
L 62.257222 -44.757494 
L 64.40197 -43.79358 
L 66.546717 -42.612969 
L 68.691465 -41.683817 
L 70.836212 -41.09294 
L 72.98096 -40.597817 
L 75.125707 -40.385093 
L 77.270455 -40.088023 
L 79.415202 -39.76181 
L 81.559949 -39.683492 
L 83.704697 -39.581525 
L 85.849444 -39.510716 
L 87.994192 -39.46798 
L 90.138939 -39.445807 
L 92.283687 -39.395132 
L 94.428434 -39.379023 
L 96.573182 -39.358443 
L 98.717929 -39.337481 
L 100.862677 -39.332251 
L 103.007424 -39.319911 
L 105.152172 -39.317313 
L 107.296919 -39.312683 
L 109.441667 -39.309285 
L 111.586414 -39.30635 
L 113.731162 -39.304762 
L 115.875909 -39.304173 
L 118.020657 -39.303144 
L 120.165404 -39.302587 
L 122.310152 -39.302301 
L 124.454899 -39.301891 
L 126.599646 -39.30176 
L 128.744394 -39.301644 
L 130.889141 -39.30156 
L 133.033889 -39.301495 
L 135.178636 -39.301482 
L 137.323384 -39.30145 
L 139.468131 -39.301415 
L 141.612879 -39.301393 
L 143.757626 -39.301386 
L 145.902374 -39.30138 
L 148.047121 -39.301374 
L 150.191869 -39.30137 
L 152.336616 -39.301369 
L 154.481364 -39.301368 
L 156.626111 -39.301366 
L 158.770859 -39.301366 
L 160.915606 -39.301365 
L 163.060354 -39.301365 
L 165.205101 -39.301364 
L 167.349848 -39.301364 
L 169.494596 -39.301364 
L 171.639343 -39.301364 
L 173.784091 -39.301364 
L 175.928838 -39.301364 
L 178.073586 -39.301364 
L 180.218333 -39.301364 
L 182.363081 -39.301364 
L 184.507828 -39.301364 
L 186.652576 -39.301364 
L 188.797323 -39.301364 
L 190.942071 -39.301364 
L 193.086818 -39.301364 
L 195.231566 -39.301364 
L 197.376313 -39.301364 
L 199.521061 -39.301364 
L 201.665808 -39.301364 
L 203.810556 -39.301364 
L 205.955303 -39.301364 
L 208.100051 -39.301364 
L 210.244798 -39.301364 
L 212.389545 -39.301364 
L 214.534293 -39.301364 
L 216.67904 -39.301364 
L 218.823788 -39.301364 
L 220.968535 -39.301364 
L 223.113283 -39.301364 
L 225.25803 -39.301364 
L 227.402778 -39.301364 
L 229.547525 -39.301364 
L 231.692273 -39.301364 
L 233.83702 -39.301364 
L 235.981768 -39.301364 
L 238.126515 -39.301364 
L 240.271263 -39.301364 
L 242.41601 -39.301364 
L 244.560758 -39.301364 
L 246.705505 -39.301364 
L 248.850253 -39.301364 
L 250.995 -39.301364 
L 250.995 -39.301387 
L 250.995 -39.301387 
L 248.850253 -39.301401 
L 246.705505 -39.301413 
L 244.560758 -39.301448 
L 242.41601 -39.301477 
L 240.271263 -39.30149 
L 238.126515 -39.301487 
L 235.981768 -39.301514 
L 233.83702 -39.301591 
L 231.692273 -39.301719 
L 229.547525 -39.301793 
L 227.402778 -39.301749 
L 225.25803 -39.301896 
L 223.113283 -39.302266 
L 220.968535 -39.302261 
L 218.823788 -39.30254 
L 216.67904 -39.302545 
L 214.534293 -39.303587 
L 212.389545 -39.303545 
L 210.244798 -39.304044 
L 208.100051 -39.304837 
L 205.955303 -39.306309 
L 203.810556 -39.306412 
L 201.665808 -39.308318 
L 199.521061 -39.307465 
L 197.376313 -39.311278 
L 195.231566 -39.314744 
L 193.086818 -39.322593 
L 190.942071 -39.318028 
L 188.797323 -39.320888 
L 186.652576 -39.324122 
L 184.507828 -39.323216 
L 182.363081 -39.329729 
L 180.218333 -39.334144 
L 178.073586 -39.342066 
L 175.928838 -39.336834 
L 173.784091 -39.359978 
L 171.639343 -39.36714 
L 169.494596 -39.376958 
L 167.349848 -39.382426 
L 165.205101 -39.388415 
L 163.060354 -39.419237 
L 160.915606 -39.427587 
L 158.770859 -39.455175 
L 156.626111 -39.486898 
L 154.481364 -39.596926 
L 152.336616 -39.583348 
L 150.191869 -39.605318 
L 148.047121 -39.701681 
L 145.902374 -39.776462 
L 143.757626 -39.860247 
L 141.612879 -40.139514 
L 139.468131 -40.190185 
L 137.323384 -40.131073 
L 135.178636 -40.230367 
L 133.033889 -40.676347 
L 130.889141 -40.690825 
L 128.744394 -40.955281 
L 126.599646 -42.218432 
L 124.454899 -42.440916 
L 122.310152 -43.156935 
L 120.165404 -43.420803 
L 118.020657 -43.148759 
L 115.875909 -43.740605 
L 113.731162 -43.543952 
L 111.586414 -44.774292 
L 109.441667 -45.572076 
L 107.296919 -46.879917 
L 105.152172 -47.905005 
L 103.007424 -48.432307 
L 100.862677 -48.780014 
L 98.717929 -49.76525 
L 96.573182 -51.841722 
L 94.428434 -52.062882 
L 92.283687 -54.008253 
L 90.138939 -55.352296 
L 87.994192 -56.823531 
L 85.849444 -58.417819 
L 83.704697 -58.597183 
L 81.559949 -58.785564 
L 79.415202 -60.084167 
L 77.270455 -62.837496 
L 75.125707 -63.438537 
L 72.98096 -64.471834 
L 70.836212 -66.479209 
L 68.691465 -70.84543 
L 66.546717 -71.387683 
L 64.40197 -72.796259 
L 62.257222 -73.882063 
L 60.112475 -76.362968 
L 57.967727 -80.170542 
L 55.82298 -82.806952 
L 53.678232 -86.797329 
L 51.533485 -91.827368 
L 49.388737 -95.303071 
L 47.24399 -102.436333 
L 45.099242 -109.318817 
L 42.954495 -118.43522 
L 40.809747 -128.6344 
L 38.665 -140.138555 
z
"/>
    </defs>
    <g clip-path="url(#p960dbf2274)">
     <use xlink:href="#m0c5cfa70d0" x="0" y="164.445" style="fill: #6c6c6c; fill-opacity: 0.15"/>
    </g>
   </g>
   <g id="FillBetweenPolyCollection_6">
    <defs>
     <path id="m6e2e9a0f58" d="M 38.665 -127.078065 
L 38.665 -98.573674 
L 40.809747 -72.274473 
L 42.954495 -57.356377 
L 45.099242 -51.1381 
L 47.24399 -45.87995 
L 49.388737 -43.566725 
L 51.533485 -41.62604 
L 53.678232 -40.850297 
L 55.82298 -40.408154 
L 57.967727 -39.985068 
L 60.112475 -39.711941 
L 62.257222 -39.592349 
L 64.40197 -39.519488 
L 66.546717 -39.411205 
L 68.691465 -39.375576 
L 70.836212 -39.348927 
L 72.98096 -39.337185 
L 75.125707 -39.324541 
L 77.270455 -39.317714 
L 79.415202 -39.311952 
L 81.559949 -39.305583 
L 83.704697 -39.305196 
L 85.849444 -39.303314 
L 87.994192 -39.303566 
L 90.138939 -39.302726 
L 92.283687 -39.302286 
L 94.428434 -39.302003 
L 96.573182 -39.301742 
L 98.717929 -39.301669 
L 100.862677 -39.301566 
L 103.007424 -39.301503 
L 105.152172 -39.30145 
L 107.296919 -39.301436 
L 109.441667 -39.30141 
L 111.586414 -39.30142 
L 113.731162 -39.301393 
L 115.875909 -39.301384 
L 118.020657 -39.301381 
L 120.165404 -39.301377 
L 122.310152 -39.301376 
L 124.454899 -39.301371 
L 126.599646 -39.301369 
L 128.744394 -39.301367 
L 130.889141 -39.301366 
L 133.033889 -39.301366 
L 135.178636 -39.301366 
L 137.323384 -39.301365 
L 139.468131 -39.301365 
L 141.612879 -39.301365 
L 143.757626 -39.301365 
L 145.902374 -39.301365 
L 148.047121 -39.301365 
L 150.191869 -39.301364 
L 152.336616 -39.301364 
L 154.481364 -39.301364 
L 156.626111 -39.301364 
L 158.770859 -39.301364 
L 160.915606 -39.301364 
L 163.060354 -39.301364 
L 165.205101 -39.301364 
L 167.349848 -39.301364 
L 169.494596 -39.301364 
L 171.639343 -39.301364 
L 173.784091 -39.301364 
L 175.928838 -39.301364 
L 178.073586 -39.301364 
L 180.218333 -39.301364 
L 182.363081 -39.301364 
L 184.507828 -39.301364 
L 186.652576 -39.301364 
L 188.797323 -39.301364 
L 190.942071 -39.301364 
L 193.086818 -39.301364 
L 195.231566 -39.301364 
L 197.376313 -39.301364 
L 199.521061 -39.301364 
L 201.665808 -39.301364 
L 203.810556 -39.301364 
L 205.955303 -39.301364 
L 208.100051 -39.301364 
L 210.244798 -39.301364 
L 212.389545 -39.301364 
L 214.534293 -39.301364 
L 216.67904 -39.301364 
L 218.823788 -39.301364 
L 220.968535 -39.301364 
L 223.113283 -39.301364 
L 225.25803 -39.301364 
L 227.402778 -39.301364 
L 229.547525 -39.301364 
L 231.692273 -39.301364 
L 233.83702 -39.301364 
L 235.981768 -39.301364 
L 238.126515 -39.301364 
L 240.271263 -39.301364 
L 242.41601 -39.301364 
L 244.560758 -39.301364 
L 246.705505 -39.301364 
L 248.850253 -39.301364 
L 250.995 -39.301364 
L 250.995 -39.362772 
L 250.995 -39.362772 
L 248.850253 -39.35615 
L 246.705505 -39.392863 
L 244.560758 -39.345916 
L 242.41601 -39.378805 
L 240.271263 -39.406703 
L 238.126515 -39.370435 
L 235.981768 -39.370193 
L 233.83702 -39.366875 
L 231.692273 -39.408917 
L 229.547525 -39.398468 
L 227.402778 -39.412567 
L 225.25803 -39.419397 
L 223.113283 -39.410027 
L 220.968535 -39.397469 
L 218.823788 -39.399441 
L 216.67904 -39.414175 
L 214.534293 -39.428147 
L 212.389545 -39.431005 
L 210.244798 -39.415492 
L 208.100051 -39.410926 
L 205.955303 -39.469348 
L 203.810556 -39.497213 
L 201.665808 -39.485882 
L 199.521061 -39.442668 
L 197.376313 -39.499661 
L 195.231566 -39.635113 
L 193.086818 -39.634864 
L 190.942071 -39.557147 
L 188.797323 -39.528784 
L 186.652576 -39.576132 
L 184.507828 -39.545523 
L 182.363081 -39.634953 
L 180.218333 -39.623667 
L 178.073586 -39.617551 
L 175.928838 -39.631886 
L 173.784091 -39.64239 
L 171.639343 -39.842046 
L 169.494596 -39.832811 
L 167.349848 -39.874949 
L 165.205101 -39.952801 
L 163.060354 -39.747944 
L 160.915606 -39.758766 
L 158.770859 -39.856492 
L 156.626111 -40.031918 
L 154.481364 -40.106899 
L 152.336616 -40.316662 
L 150.191869 -40.306604 
L 148.047121 -40.278823 
L 145.902374 -40.390551 
L 143.757626 -40.464568 
L 141.612879 -40.526205 
L 139.468131 -41.138143 
L 137.323384 -40.429975 
L 135.178636 -40.978222 
L 133.033889 -40.990005 
L 130.889141 -41.083237 
L 128.744394 -40.876822 
L 126.599646 -41.078887 
L 124.454899 -41.502191 
L 122.310152 -41.167099 
L 120.165404 -41.162953 
L 118.020657 -40.971398 
L 115.875909 -41.198888 
L 113.731162 -41.995676 
L 111.586414 -42.557297 
L 109.441667 -43.492124 
L 107.296919 -43.224614 
L 105.152172 -43.296461 
L 103.007424 -42.673802 
L 100.862677 -43.293606 
L 98.717929 -42.729403 
L 96.573182 -43.53674 
L 94.428434 -45.475873 
L 92.283687 -44.855304 
L 90.138939 -46.048784 
L 87.994192 -46.064859 
L 85.849444 -46.824985 
L 83.704697 -47.793278 
L 81.559949 -48.301399 
L 79.415202 -49.382505 
L 77.270455 -49.821304 
L 75.125707 -50.269051 
L 72.98096 -50.447206 
L 70.836212 -51.756869 
L 68.691465 -53.846657 
L 66.546717 -56.658473 
L 64.40197 -55.854564 
L 62.257222 -58.615127 
L 60.112475 -63.005579 
L 57.967727 -62.204201 
L 55.82298 -64.037068 
L 53.678232 -68.329377 
L 51.533485 -70.979468 
L 49.388737 -73.129996 
L 47.24399 -76.096108 
L 45.099242 -83.921453 
L 42.954495 -92.520623 
L 40.809747 -108.611375 
L 38.665 -127.078065 
z
"/>
    </defs>
    <g clip-path="url(#p960dbf2274)">
     <use xlink:href="#m6e2e9a0f58" x="0" y="164.445" style="fill: #515151; fill-opacity: 0.15"/>
    </g>
   </g>
   <g id="matplotlib.axis_1">
    <g id="xtick_1">
     <g id="line2d_1">
      <defs>
       <path id="m04c1dc4855" d="M 0 0 
L 0 3.5 
" style="stroke: #000000; stroke-width: 0.8"/>
      </defs>
      <g>
       <use xlink:href="#m04c1dc4855" x="38.665" y="130.76" style="stroke: #000000; stroke-width: 0.8"/>
      </g>
     </g>
     <g id="text_1">
      <!-- 0 -->
      <g transform="translate(36.12 143.83875) scale(0.08 -0.08)">
       <defs>
        <path id="DejaVuSans-30" d="M 2034 4250 
Q 1547 4250 1301 3770 
Q 1056 3291 1056 2328 
Q 1056 1369 1301 889 
Q 1547 409 2034 409 
Q 2525 409 2770 889 
Q 3016 1369 3016 2328 
Q 3016 3291 2770 3770 
Q 2525 4250 2034 4250 
z
M 2034 4750 
Q 2819 4750 3233 4129 
Q 3647 3509 3647 2328 
Q 3647 1150 3233 529 
Q 2819 -91 2034 -91 
Q 1250 -91 836 529 
Q 422 1150 422 2328 
Q 422 3509 836 4129 
Q 1250 4750 2034 4750 
z
" transform="scale(0.015625)"/>
       </defs>
       <use xlink:href="#DejaVuSans-30"/>
      </g>
     </g>
    </g>
    <g id="xtick_2">
     <g id="line2d_2">
      <g>
       <use xlink:href="#m04c1dc4855" x="81.559949" y="130.76" style="stroke: #000000; stroke-width: 0.8"/>
      </g>
     </g>
     <g id="text_2">
      <!-- 2 -->
      <g transform="translate(79.014949 143.83875) scale(0.08 -0.08)">
       <defs>
        <path id="DejaVuSans-32" d="M 1228 531 
L 3431 531 
L 3431 0 
L 469 0 
L 469 531 
Q 828 903 1448 1529 
Q 2069 2156 2228 2338 
Q 2531 2678 2651 2914 
Q 2772 3150 2772 3378 
Q 2772 3750 2511 3984 
Q 2250 4219 1831 4219 
Q 1534 4219 1204 4116 
Q 875 4013 500 3803 
L 500 4441 
Q 881 4594 1212 4672 
Q 1544 4750 1819 4750 
Q 2544 4750 2975 4387 
Q 3406 4025 3406 3419 
Q 3406 3131 3298 2873 
Q 3191 2616 2906 2266 
Q 2828 2175 2409 1742 
Q 1991 1309 1228 531 
z
" transform="scale(0.015625)"/>
       </defs>
       <use xlink:href="#DejaVuSans-32"/>
      </g>
     </g>
    </g>
    <g id="xtick_3">
     <g id="line2d_3">
      <g>
       <use xlink:href="#m04c1dc4855" x="124.454899" y="130.76" style="stroke: #000000; stroke-width: 0.8"/>
      </g>
     </g>
     <g id="text_3">
      <!-- 4 -->
      <g transform="translate(121.909899 143.83875) scale(0.08 -0.08)">
       <defs>
        <path id="DejaVuSans-34" d="M 2419 4116 
L 825 1625 
L 2419 1625 
L 2419 4116 
z
M 2253 4666 
L 3047 4666 
L 3047 1625 
L 3713 1625 
L 3713 1100 
L 3047 1100 
L 3047 0 
L 2419 0 
L 2419 1100 
L 313 1100 
L 313 1709 
L 2253 4666 
z
" transform="scale(0.015625)"/>
       </defs>
       <use xlink:href="#DejaVuSans-34"/>
      </g>
     </g>
    </g>
    <g id="xtick_4">
     <g id="line2d_4">
      <g>
       <use xlink:href="#m04c1dc4855" x="167.349848" y="130.76" style="stroke: #000000; stroke-width: 0.8"/>
      </g>
     </g>
     <g id="text_4">
      <!-- 6 -->
      <g transform="translate(164.804848 143.83875) scale(0.08 -0.08)">
       <defs>
        <path id="DejaVuSans-36" d="M 2113 2584 
Q 1688 2584 1439 2293 
Q 1191 2003 1191 1497 
Q 1191 994 1439 701 
Q 1688 409 2113 409 
Q 2538 409 2786 701 
Q 3034 994 3034 1497 
Q 3034 2003 2786 2293 
Q 2538 2584 2113 2584 
z
M 3366 4563 
L 3366 3988 
Q 3128 4100 2886 4159 
Q 2644 4219 2406 4219 
Q 1781 4219 1451 3797 
Q 1122 3375 1075 2522 
Q 1259 2794 1537 2939 
Q 1816 3084 2150 3084 
Q 2853 3084 3261 2657 
Q 3669 2231 3669 1497 
Q 3669 778 3244 343 
Q 2819 -91 2113 -91 
Q 1303 -91 875 529 
Q 447 1150 447 2328 
Q 447 3434 972 4092 
Q 1497 4750 2381 4750 
Q 2619 4750 2861 4703 
Q 3103 4656 3366 4563 
z
" transform="scale(0.015625)"/>
       </defs>
       <use xlink:href="#DejaVuSans-36"/>
      </g>
     </g>
    </g>
    <g id="xtick_5">
     <g id="line2d_5">
      <g>
       <use xlink:href="#m04c1dc4855" x="210.244798" y="130.76" style="stroke: #000000; stroke-width: 0.8"/>
      </g>
     </g>
     <g id="text_5">
      <!-- 8 -->
      <g transform="translate(207.699798 143.83875) scale(0.08 -0.08)">
       <defs>
        <path id="DejaVuSans-38" d="M 2034 2216 
Q 1584 2216 1326 1975 
Q 1069 1734 1069 1313 
Q 1069 891 1326 650 
Q 1584 409 2034 409 
Q 2484 409 2743 651 
Q 3003 894 3003 1313 
Q 3003 1734 2745 1975 
Q 2488 2216 2034 2216 
z
M 1403 2484 
Q 997 2584 770 2862 
Q 544 3141 544 3541 
Q 544 4100 942 4425 
Q 1341 4750 2034 4750 
Q 2731 4750 3128 4425 
Q 3525 4100 3525 3541 
Q 3525 3141 3298 2862 
Q 3072 2584 2669 2484 
Q 3125 2378 3379 2068 
Q 3634 1759 3634 1313 
Q 3634 634 3220 271 
Q 2806 -91 2034 -91 
Q 1263 -91 848 271 
Q 434 634 434 1313 
Q 434 1759 690 2068 
Q 947 2378 1403 2484 
z
M 1172 3481 
Q 1172 3119 1398 2916 
Q 1625 2713 2034 2713 
Q 2441 2713 2670 2916 
Q 2900 3119 2900 3481 
Q 2900 3844 2670 4047 
Q 2441 4250 2034 4250 
Q 1625 4250 1398 4047 
Q 1172 3844 1172 3481 
z
" transform="scale(0.015625)"/>
       </defs>
       <use xlink:href="#DejaVuSans-38"/>
      </g>
     </g>
    </g>
    <g id="text_6">
     <!-- Time (s) -->
     <g transform="translate(128.566875 155.58125) scale(0.08 -0.08)">
      <defs>
       <path id="DejaVuSans-54" d="M -19 4666 
L 3928 4666 
L 3928 4134 
L 2272 4134 
L 2272 0 
L 1638 0 
L 1638 4134 
L -19 4134 
L -19 4666 
z
" transform="scale(0.015625)"/>
       <path id="DejaVuSans-69" d="M 603 3500 
L 1178 3500 
L 1178 0 
L 603 0 
L 603 3500 
z
M 603 4863 
L 1178 4863 
L 1178 4134 
L 603 4134 
L 603 4863 
z
" transform="scale(0.015625)"/>
       <path id="DejaVuSans-6d" d="M 3328 2828 
Q 3544 3216 3844 3400 
Q 4144 3584 4550 3584 
Q 5097 3584 5394 3201 
Q 5691 2819 5691 2113 
L 5691 0 
L 5113 0 
L 5113 2094 
Q 5113 2597 4934 2840 
Q 4756 3084 4391 3084 
Q 3944 3084 3684 2787 
Q 3425 2491 3425 1978 
L 3425 0 
L 2847 0 
L 2847 2094 
Q 2847 2600 2669 2842 
Q 2491 3084 2119 3084 
Q 1678 3084 1418 2786 
Q 1159 2488 1159 1978 
L 1159 0 
L 581 0 
L 581 3500 
L 1159 3500 
L 1159 2956 
Q 1356 3278 1631 3431 
Q 1906 3584 2284 3584 
Q 2666 3584 2933 3390 
Q 3200 3197 3328 2828 
z
" transform="scale(0.015625)"/>
       <path id="DejaVuSans-65" d="M 3597 1894 
L 3597 1613 
L 953 1613 
Q 991 1019 1311 708 
Q 1631 397 2203 397 
Q 2534 397 2845 478 
Q 3156 559 3463 722 
L 3463 178 
Q 3153 47 2828 -22 
Q 2503 -91 2169 -91 
Q 1331 -91 842 396 
Q 353 884 353 1716 
Q 353 2575 817 3079 
Q 1281 3584 2069 3584 
Q 2775 3584 3186 3129 
Q 3597 2675 3597 1894 
z
M 3022 2063 
Q 3016 2534 2758 2815 
Q 2500 3097 2075 3097 
Q 1594 3097 1305 2825 
Q 1016 2553 972 2059 
L 3022 2063 
z
" transform="scale(0.015625)"/>
       <path id="DejaVuSans-20" transform="scale(0.015625)"/>
       <path id="DejaVuSans-28" d="M 1984 4856 
Q 1566 4138 1362 3434 
Q 1159 2731 1159 2009 
Q 1159 1288 1364 580 
Q 1569 -128 1984 -844 
L 1484 -844 
Q 1016 -109 783 600 
Q 550 1309 550 2009 
Q 550 2706 781 3412 
Q 1013 4119 1484 4856 
L 1984 4856 
z
" transform="scale(0.015625)"/>
       <path id="DejaVuSans-73" d="M 2834 3397 
L 2834 2853 
Q 2591 2978 2328 3040 
Q 2066 3103 1784 3103 
Q 1356 3103 1142 2972 
Q 928 2841 928 2578 
Q 928 2378 1081 2264 
Q 1234 2150 1697 2047 
L 1894 2003 
Q 2506 1872 2764 1633 
Q 3022 1394 3022 966 
Q 3022 478 2636 193 
Q 2250 -91 1575 -91 
Q 1294 -91 989 -36 
Q 684 19 347 128 
L 347 722 
Q 666 556 975 473 
Q 1284 391 1588 391 
Q 1994 391 2212 530 
Q 2431 669 2431 922 
Q 2431 1156 2273 1281 
Q 2116 1406 1581 1522 
L 1381 1569 
Q 847 1681 609 1914 
Q 372 2147 372 2553 
Q 372 3047 722 3315 
Q 1072 3584 1716 3584 
Q 2034 3584 2315 3537 
Q 2597 3491 2834 3397 
z
" transform="scale(0.015625)"/>
       <path id="DejaVuSans-29" d="M 513 4856 
L 1013 4856 
Q 1481 4119 1714 3412 
Q 1947 2706 1947 2009 
Q 1947 1309 1714 600 
Q 1481 -109 1013 -844 
L 513 -844 
Q 928 -128 1133 580 
Q 1338 1288 1338 2009 
Q 1338 2731 1133 3434 
Q 928 4138 513 4856 
z
" transform="scale(0.015625)"/>
      </defs>
      <use xlink:href="#DejaVuSans-54"/>
      <use xlink:href="#DejaVuSans-69" transform="translate(57.958984 0)"/>
      <use xlink:href="#DejaVuSans-6d" transform="translate(85.742188 0)"/>
      <use xlink:href="#DejaVuSans-65" transform="translate(183.154297 0)"/>
      <use xlink:href="#DejaVuSans-20" transform="translate(244.677734 0)"/>
      <use xlink:href="#DejaVuSans-28" transform="translate(276.464844 0)"/>
      <use xlink:href="#DejaVuSans-73" transform="translate(315.478516 0)"/>
      <use xlink:href="#DejaVuSans-29" transform="translate(367.578125 0)"/>
     </g>
    </g>
   </g>
   <g id="matplotlib.axis_2">
    <g id="ytick_1">
     <g id="line2d_6">
      <defs>
       <path id="m0b7eff55f9" d="M 0 0 
L -3.5 0 
" style="stroke: #000000; stroke-width: 0.8"/>
      </defs>
      <g>
       <use xlink:href="#m0b7eff55f9" x="38.665" y="125.143636" style="stroke: #000000; stroke-width: 0.8"/>
      </g>
     </g>
     <g id="text_7">
      <!-- 0.0 -->
      <g transform="translate(18.9425 128.183011) scale(0.08 -0.08)">
       <defs>
        <path id="DejaVuSans-2e" d="M 684 794 
L 1344 794 
L 1344 0 
L 684 0 
L 684 794 
z
" transform="scale(0.015625)"/>
       </defs>
       <use xlink:href="#DejaVuSans-30"/>
       <use xlink:href="#DejaVuSans-2e" transform="translate(63.623047 0)"/>
       <use xlink:href="#DejaVuSans-30" transform="translate(95.410156 0)"/>
      </g>
     </g>
    </g>
    <g id="ytick_2">
     <g id="line2d_7">
      <g>
       <use xlink:href="#m0b7eff55f9" x="38.665" y="100.625135" style="stroke: #000000; stroke-width: 0.8"/>
      </g>
     </g>
     <g id="text_8">
      <!-- 0.5 -->
      <g transform="translate(18.9425 103.66451) scale(0.08 -0.08)">
       <defs>
        <path id="DejaVuSans-35" d="M 691 4666 
L 3169 4666 
L 3169 4134 
L 1269 4134 
L 1269 2991 
Q 1406 3038 1543 3061 
Q 1681 3084 1819 3084 
Q 2600 3084 3056 2656 
Q 3513 2228 3513 1497 
Q 3513 744 3044 326 
Q 2575 -91 1722 -91 
Q 1428 -91 1123 -41 
Q 819 9 494 109 
L 494 744 
Q 775 591 1075 516 
Q 1375 441 1709 441 
Q 2250 441 2565 725 
Q 2881 1009 2881 1497 
Q 2881 1984 2565 2268 
Q 2250 2553 1709 2553 
Q 1456 2553 1204 2497 
Q 953 2441 691 2322 
L 691 4666 
z
" transform="scale(0.015625)"/>
       </defs>
       <use xlink:href="#DejaVuSans-30"/>
       <use xlink:href="#DejaVuSans-2e" transform="translate(63.623047 0)"/>
       <use xlink:href="#DejaVuSans-35" transform="translate(95.410156 0)"/>
      </g>
     </g>
    </g>
    <g id="ytick_3">
     <g id="line2d_8">
      <g>
       <use xlink:href="#m0b7eff55f9" x="38.665" y="76.106633" style="stroke: #000000; stroke-width: 0.8"/>
      </g>
     </g>
     <g id="text_9">
      <!-- 1.0 -->
      <g transform="translate(18.9425 79.146008) scale(0.08 -0.08)">
       <defs>
        <path id="DejaVuSans-31" d="M 794 531 
L 1825 531 
L 1825 4091 
L 703 3866 
L 703 4441 
L 1819 4666 
L 2450 4666 
L 2450 531 
L 3481 531 
L 3481 0 
L 794 0 
L 794 531 
z
" transform="scale(0.015625)"/>
       </defs>
       <use xlink:href="#DejaVuSans-31"/>
       <use xlink:href="#DejaVuSans-2e" transform="translate(63.623047 0)"/>
       <use xlink:href="#DejaVuSans-30" transform="translate(95.410156 0)"/>
      </g>
     </g>
    </g>
    <g id="ytick_4">
     <g id="line2d_9">
      <g>
       <use xlink:href="#m0b7eff55f9" x="38.665" y="51.588131" style="stroke: #000000; stroke-width: 0.8"/>
      </g>
     </g>
     <g id="text_10">
      <!-- 1.5 -->
      <g transform="translate(18.9425 54.627506) scale(0.08 -0.08)">
       <use xlink:href="#DejaVuSans-31"/>
       <use xlink:href="#DejaVuSans-2e" transform="translate(63.623047 0)"/>
       <use xlink:href="#DejaVuSans-35" transform="translate(95.410156 0)"/>
      </g>
     </g>
    </g>
    <g id="ytick_5">
     <g id="line2d_10">
      <g>
       <use xlink:href="#m0b7eff55f9" x="38.665" y="27.06963" style="stroke: #000000; stroke-width: 0.8"/>
      </g>
     </g>
     <g id="text_11">
      <!-- 2.0 -->
      <g transform="translate(18.9425 30.109005) scale(0.08 -0.08)">
       <use xlink:href="#DejaVuSans-32"/>
       <use xlink:href="#DejaVuSans-2e" transform="translate(63.623047 0)"/>
       <use xlink:href="#DejaVuSans-30" transform="translate(95.410156 0)"/>
      </g>
     </g>
    </g>
    <g id="text_12">
     <!-- Entropy -->
     <g transform="translate(13.27875 84.519375) rotate(-90) scale(0.08 -0.08)">
      <defs>
       <path id="DejaVuSans-45" d="M 628 4666 
L 3578 4666 
L 3578 4134 
L 1259 4134 
L 1259 2753 
L 3481 2753 
L 3481 2222 
L 1259 2222 
L 1259 531 
L 3634 531 
L 3634 0 
L 628 0 
L 628 4666 
z
" transform="scale(0.015625)"/>
       <path id="DejaVuSans-6e" d="M 3513 2113 
L 3513 0 
L 2938 0 
L 2938 2094 
Q 2938 2591 2744 2837 
Q 2550 3084 2163 3084 
Q 1697 3084 1428 2787 
Q 1159 2491 1159 1978 
L 1159 0 
L 581 0 
L 581 3500 
L 1159 3500 
L 1159 2956 
Q 1366 3272 1645 3428 
Q 1925 3584 2291 3584 
Q 2894 3584 3203 3211 
Q 3513 2838 3513 2113 
z
" transform="scale(0.015625)"/>
       <path id="DejaVuSans-74" d="M 1172 4494 
L 1172 3500 
L 2356 3500 
L 2356 3053 
L 1172 3053 
L 1172 1153 
Q 1172 725 1289 603 
Q 1406 481 1766 481 
L 2356 481 
L 2356 0 
L 1766 0 
Q 1100 0 847 248 
Q 594 497 594 1153 
L 594 3053 
L 172 3053 
L 172 3500 
L 594 3500 
L 594 4494 
L 1172 4494 
z
" transform="scale(0.015625)"/>
       <path id="DejaVuSans-72" d="M 2631 2963 
Q 2534 3019 2420 3045 
Q 2306 3072 2169 3072 
Q 1681 3072 1420 2755 
Q 1159 2438 1159 1844 
L 1159 0 
L 581 0 
L 581 3500 
L 1159 3500 
L 1159 2956 
Q 1341 3275 1631 3429 
Q 1922 3584 2338 3584 
Q 2397 3584 2469 3576 
Q 2541 3569 2628 3553 
L 2631 2963 
z
" transform="scale(0.015625)"/>
       <path id="DejaVuSans-6f" d="M 1959 3097 
Q 1497 3097 1228 2736 
Q 959 2375 959 1747 
Q 959 1119 1226 758 
Q 1494 397 1959 397 
Q 2419 397 2687 759 
Q 2956 1122 2956 1747 
Q 2956 2369 2687 2733 
Q 2419 3097 1959 3097 
z
M 1959 3584 
Q 2709 3584 3137 3096 
Q 3566 2609 3566 1747 
Q 3566 888 3137 398 
Q 2709 -91 1959 -91 
Q 1206 -91 779 398 
Q 353 888 353 1747 
Q 353 2609 779 3096 
Q 1206 3584 1959 3584 
z
" transform="scale(0.015625)"/>
       <path id="DejaVuSans-70" d="M 1159 525 
L 1159 -1331 
L 581 -1331 
L 581 3500 
L 1159 3500 
L 1159 2969 
Q 1341 3281 1617 3432 
Q 1894 3584 2278 3584 
Q 2916 3584 3314 3078 
Q 3713 2572 3713 1747 
Q 3713 922 3314 415 
Q 2916 -91 2278 -91 
Q 1894 -91 1617 61 
Q 1341 213 1159 525 
z
M 3116 1747 
Q 3116 2381 2855 2742 
Q 2594 3103 2138 3103 
Q 1681 3103 1420 2742 
Q 1159 2381 1159 1747 
Q 1159 1113 1420 752 
Q 1681 391 2138 391 
Q 2594 391 2855 752 
Q 3116 1113 3116 1747 
z
" transform="scale(0.015625)"/>
       <path id="DejaVuSans-79" d="M 2059 -325 
Q 1816 -950 1584 -1140 
Q 1353 -1331 966 -1331 
L 506 -1331 
L 506 -850 
L 844 -850 
Q 1081 -850 1212 -737 
Q 1344 -625 1503 -206 
L 1606 56 
L 191 3500 
L 800 3500 
L 1894 763 
L 2988 3500 
L 3597 3500 
L 2059 -325 
z
" transform="scale(0.015625)"/>
      </defs>
      <use xlink:href="#DejaVuSans-45"/>
      <use xlink:href="#DejaVuSans-6e" transform="translate(63.183594 0)"/>
      <use xlink:href="#DejaVuSans-74" transform="translate(126.5625 0)"/>
      <use xlink:href="#DejaVuSans-72" transform="translate(165.771484 0)"/>
      <use xlink:href="#DejaVuSans-6f" transform="translate(204.634766 0)"/>
      <use xlink:href="#DejaVuSans-70" transform="translate(265.816406 0)"/>
      <use xlink:href="#DejaVuSans-79" transform="translate(329.292969 0)"/>
     </g>
    </g>
   </g>
   <g id="line2d_11">
    <path d="M 38.665 17.160641 
L 40.809747 20.796423 
L 42.954495 24.407747 
L 45.099242 27.544982 
L 47.24399 30.753346 
L 49.388737 33.696008 
L 51.533485 36.01952 
L 53.678232 38.659657 
L 55.82298 41.182185 
L 57.967727 43.571133 
L 60.112475 45.627545 
L 62.257222 47.965858 
L 64.40197 50.391962 
L 66.546717 52.349488 
L 68.691465 54.168403 
L 70.836212 55.846729 
L 72.98096 57.652677 
L 75.125707 59.296981 
L 77.270455 61.36609 
L 79.415202 62.97283 
L 81.559949 64.549698 
L 83.704697 66.049673 
L 85.849444 67.416161 
L 87.994192 68.484042 
L 90.138939 69.71428 
L 92.283687 70.685251 
L 94.428434 71.738921 
L 96.573182 72.875482 
L 98.717929 73.84602 
L 100.862677 74.977285 
L 103.007424 75.853054 
L 105.152172 76.737395 
L 107.296919 77.183507 
L 109.441667 77.990639 
L 111.586414 78.846906 
L 113.731162 79.581332 
L 115.875909 80.515955 
L 118.020657 81.119844 
L 120.165404 81.71439 
L 122.310152 82.185071 
L 124.454899 82.760238 
L 126.599646 83.626288 
L 128.744394 84.238946 
L 130.889141 84.881308 
L 133.033889 85.827696 
L 135.178636 86.394138 
L 137.323384 87.037632 
L 139.468131 87.529653 
L 141.612879 88.211944 
L 143.757626 88.837647 
L 145.902374 89.313481 
L 148.047121 90.014005 
L 150.191869 90.385673 
L 152.336616 90.774196 
L 154.481364 91.17926 
L 156.626111 91.590961 
L 158.770859 91.827837 
L 160.915606 92.0493 
L 163.060354 92.512852 
L 165.205101 92.745025 
L 167.349848 93.354742 
L 169.494596 93.793182 
L 171.639343 94.282034 
L 173.784091 94.697644 
L 175.928838 95.059081 
L 178.073586 95.654717 
L 180.218333 95.773129 
L 182.363081 96.256689 
L 184.507828 96.693532 
L 186.652576 97.053789 
L 188.797323 97.28941 
L 190.942071 97.581472 
L 193.086818 98.000787 
L 195.231566 98.238679 
L 197.376313 98.579944 
L 199.521061 98.651231 
L 201.665808 98.965755 
L 203.810556 99.277089 
L 205.955303 99.647754 
L 208.100051 99.866315 
L 210.244798 100.057079 
L 212.389545 100.373713 
L 214.534293 100.595649 
L 216.67904 100.823839 
L 218.823788 101.141675 
L 220.968535 101.259147 
L 223.113283 101.524181 
L 225.25803 101.838919 
L 227.402778 102.301461 
L 229.547525 102.458195 
L 231.692273 102.736671 
L 233.83702 103.120518 
L 235.981768 103.441913 
L 238.126515 103.543264 
L 240.271263 103.902038 
L 242.41601 104.001858 
L 244.560758 104.26505 
L 246.705505 104.411205 
L 248.850253 104.590822 
L 250.995 104.819218 
" clip-path="url(#p960dbf2274)" style="fill: none; stroke: #d9d9d9; stroke-linecap: square"/>
   </g>
   <g id="line2d_12">
    <path d="M 38.665 18.389634 
L 40.809747 23.524221 
L 42.954495 29.1692 
L 45.099242 34.504066 
L 47.24399 40.448559 
L 49.388737 45.551855 
L 51.533485 50.856885 
L 53.678232 54.773499 
L 55.82298 58.960955 
L 57.967727 62.864895 
L 60.112475 66.35339 
L 62.257222 69.113842 
L 64.40197 71.638276 
L 66.546717 74.788874 
L 68.691465 77.115408 
L 70.836212 79.445613 
L 72.98096 80.982702 
L 75.125707 82.855671 
L 77.270455 84.39568 
L 79.415202 86.09524 
L 81.559949 87.367283 
L 83.704697 88.695907 
L 85.849444 90.429372 
L 87.994192 91.629528 
L 90.138939 93.185759 
L 92.283687 94.373782 
L 94.428434 95.50073 
L 96.573182 96.184746 
L 98.717929 96.910877 
L 100.862677 97.791088 
L 103.007424 98.726018 
L 105.152172 99.787655 
L 107.296919 100.255782 
L 109.441667 100.753994 
L 111.586414 101.235475 
L 113.731162 102.083922 
L 115.875909 102.472715 
L 118.020657 103.045793 
L 120.165404 103.390787 
L 122.310152 103.922554 
L 124.454899 104.113187 
L 126.599646 104.527614 
L 128.744394 104.933027 
L 130.889141 105.323101 
L 133.033889 105.780673 
L 135.178636 106.324069 
L 137.323384 106.71312 
L 139.468131 107.005161 
L 141.612879 107.167818 
L 143.757626 107.520579 
L 145.902374 107.66455 
L 148.047121 108.176774 
L 150.191869 108.51308 
L 152.336616 108.966341 
L 154.481364 109.277849 
L 156.626111 109.544311 
L 158.770859 109.566226 
L 160.915606 109.925486 
L 163.060354 110.334659 
L 165.205101 110.496847 
L 167.349848 110.609625 
L 169.494596 111.022306 
L 171.639343 111.177993 
L 173.784091 111.435828 
L 175.928838 111.724389 
L 178.073586 112.111793 
L 180.218333 112.365228 
L 182.363081 112.57521 
L 184.507828 112.715145 
L 186.652576 112.834991 
L 188.797323 113.000268 
L 190.942071 113.107594 
L 193.086818 113.257344 
L 195.231566 113.691535 
L 197.376313 113.571708 
L 199.521061 113.756337 
L 201.665808 114.010017 
L 203.810556 114.035977 
L 205.955303 114.063915 
L 208.100051 114.287109 
L 210.244798 114.532114 
L 212.389545 114.693331 
L 214.534293 114.93634 
L 216.67904 114.92662 
L 218.823788 114.955416 
L 220.968535 115.028468 
L 223.113283 115.288134 
L 225.25803 115.451031 
L 227.402778 115.593139 
L 229.547525 115.747803 
L 231.692273 115.941683 
L 233.83702 115.986715 
L 235.981768 116.165062 
L 238.126515 116.324127 
L 240.271263 116.088901 
L 242.41601 116.124124 
L 244.560758 116.134349 
L 246.705505 116.129264 
L 248.850253 116.299687 
L 250.995 116.408246 
" clip-path="url(#p960dbf2274)" style="fill: none; stroke-dasharray: 3.7,1.6; stroke-dashoffset: 0; stroke: #c3c3c3"/>
   </g>
   <g id="line2d_13">
    <path d="M 38.665 24.739945 
L 40.809747 34.123028 
L 42.954495 42.772855 
L 45.099242 49.872054 
L 47.24399 55.369272 
L 49.388737 61.425067 
L 51.533485 67.950344 
L 53.678232 72.354966 
L 55.82298 76.527126 
L 57.967727 80.189819 
L 60.112475 83.764696 
L 62.257222 86.782959 
L 64.40197 89.483704 
L 66.546717 91.450066 
L 68.691465 94.058508 
L 70.836212 96.322669 
L 72.98096 97.92928 
L 75.125707 99.376971 
L 77.270455 100.956647 
L 79.415202 102.48333 
L 81.559949 103.204358 
L 83.704697 104.568212 
L 85.849444 105.92368 
L 87.994192 106.876457 
L 90.138939 107.509067 
L 92.283687 108.032494 
L 94.428434 108.932338 
L 96.573182 109.577121 
L 98.717929 110.399543 
L 100.862677 111.260359 
L 103.007424 112.070806 
L 105.152172 112.831538 
L 107.296919 113.262936 
L 109.441667 113.867939 
L 111.586414 113.964226 
L 113.731162 114.196626 
L 115.875909 114.5591 
L 118.020657 114.786393 
L 120.165404 115.011192 
L 122.310152 115.338257 
L 124.454899 115.627558 
L 126.599646 115.77295 
L 128.744394 116.197911 
L 130.889141 116.231617 
L 133.033889 116.698941 
L 135.178636 116.818353 
L 137.323384 117.070466 
L 139.468131 117.10588 
L 141.612879 117.38138 
L 143.757626 117.493206 
L 145.902374 117.586219 
L 148.047121 117.741086 
L 150.191869 118.299399 
L 152.336616 118.400546 
L 154.481364 118.490956 
L 156.626111 118.554412 
L 158.770859 118.468146 
L 160.915606 118.388022 
L 163.060354 118.785368 
L 165.205101 119.00557 
L 167.349848 119.053095 
L 169.494596 119.048107 
L 171.639343 119.137995 
L 173.784091 119.325233 
L 175.928838 119.50248 
L 178.073586 119.369531 
L 180.218333 119.505484 
L 182.363081 119.466687 
L 184.507828 119.657108 
L 186.652576 119.991387 
L 188.797323 120.129688 
L 190.942071 120.147811 
L 193.086818 120.004345 
L 195.231566 120.111674 
L 197.376313 120.328026 
L 199.521061 120.546226 
L 201.665808 120.381927 
L 203.810556 120.489735 
L 205.955303 120.658648 
L 208.100051 120.869196 
L 210.244798 120.904551 
L 212.389545 121.019521 
L 214.534293 120.990042 
L 216.67904 121.174989 
L 218.823788 121.141528 
L 220.968535 121.19494 
L 223.113283 121.144896 
L 225.25803 121.366774 
L 227.402778 121.505472 
L 229.547525 121.564383 
L 231.692273 121.551161 
L 233.83702 121.621366 
L 235.981768 121.536436 
L 238.126515 121.528452 
L 240.271263 121.599387 
L 242.41601 121.542463 
L 244.560758 121.715798 
L 246.705505 121.75524 
L 248.850253 121.801403 
L 250.995 121.660685 
" clip-path="url(#p960dbf2274)" style="fill: none; stroke-dasharray: 6.4,1.6,1,1.6; stroke-dashoffset: 0; stroke: #a5a5a5"/>
   </g>
   <g id="line2d_14">
    <path d="M 38.665 28.75058 
L 40.809747 42.288296 
L 42.954495 52.979184 
L 45.099242 62.139197 
L 47.24399 69.676289 
L 49.388737 76.916378 
L 51.533485 83.048449 
L 53.678232 87.069768 
L 55.82298 91.918588 
L 57.967727 95.22459 
L 60.112475 98.116458 
L 62.257222 100.386976 
L 64.40197 102.97156 
L 66.546717 104.721336 
L 68.691465 106.264946 
L 70.836212 107.3173 
L 72.98096 108.619292 
L 75.125707 109.89788 
L 77.270455 110.856502 
L 79.415202 111.617976 
L 81.559949 112.675276 
L 83.704697 113.724277 
L 85.849444 114.349534 
L 87.994192 114.890349 
L 90.138939 115.876208 
L 92.283687 116.506385 
L 94.428434 117.088819 
L 96.573182 117.559107 
L 98.717929 117.955191 
L 100.862677 118.431805 
L 103.007424 119.014738 
L 105.152172 118.945275 
L 107.296919 119.253035 
L 109.441667 119.888775 
L 111.586414 120.108887 
L 113.731162 120.279366 
L 115.875909 120.54946 
L 118.020657 120.91081 
L 120.165404 120.993495 
L 122.310152 121.165631 
L 124.454899 121.244466 
L 126.599646 121.542156 
L 128.744394 121.701808 
L 130.889141 121.731354 
L 133.033889 121.804306 
L 135.178636 122.132303 
L 137.323384 122.150387 
L 139.468131 122.429351 
L 141.612879 122.5429 
L 143.757626 122.678726 
L 145.902374 122.904958 
L 148.047121 123.063085 
L 150.191869 123.090715 
L 152.336616 123.09177 
L 154.481364 123.229972 
L 156.626111 123.393843 
L 158.770859 123.613338 
L 160.915606 123.603666 
L 163.060354 123.773392 
L 165.205101 123.912524 
L 167.349848 123.812695 
L 169.494596 123.824518 
L 171.639343 123.807959 
L 173.784091 123.868218 
L 175.928838 123.965557 
L 178.073586 123.991993 
L 180.218333 124.033657 
L 182.363081 124.028641 
L 184.507828 124.222498 
L 186.652576 123.981689 
L 188.797323 124.052187 
L 190.942071 124.129333 
L 193.086818 124.207893 
L 195.231566 124.159837 
L 197.376313 124.327696 
L 199.521061 124.334046 
L 201.665808 124.32604 
L 203.810556 124.352862 
L 205.955303 124.322578 
L 208.100051 124.36349 
L 210.244798 124.343415 
L 212.389545 124.428823 
L 214.534293 124.469321 
L 216.67904 124.473911 
L 218.823788 124.553477 
L 220.968535 124.516527 
L 223.113283 124.555606 
L 225.25803 124.6411 
L 227.402778 124.60283 
L 229.547525 124.56957 
L 231.692273 124.583121 
L 233.83702 124.507098 
L 235.981768 124.60346 
L 238.126515 124.63857 
L 240.271263 124.664947 
L 242.41601 124.698217 
L 244.560758 124.635896 
L 246.705505 124.595375 
L 248.850253 124.601708 
L 250.995 124.630828 
" clip-path="url(#p960dbf2274)" style="fill: none; stroke-dasharray: 1,1.65; stroke-dashoffset: 0; stroke: #888888"/>
   </g>
   <g id="line2d_15">
    <path d="M 38.665 34.00978 
L 40.809747 48.678825 
L 42.954495 61.014338 
L 45.099242 70.728953 
L 47.24399 77.878715 
L 49.388737 83.420985 
L 51.533485 88.368552 
L 53.678232 92.08582 
L 55.82298 96.067672 
L 57.967727 98.458965 
L 60.112475 101.481231 
L 62.257222 103.114554 
L 64.40197 104.799933 
L 66.546717 106.27052 
L 68.691465 107.472875 
L 70.836212 109.875409 
L 72.98096 110.634932 
L 75.125707 111.833737 
L 77.270455 112.483421 
L 79.415202 113.398044 
L 81.559949 113.9245 
L 83.704697 114.595743 
L 85.849444 114.625522 
L 87.994192 115.282253 
L 90.138939 115.722549 
L 92.283687 116.246274 
L 94.428434 116.719286 
L 96.573182 117.162642 
L 98.717929 117.489139 
L 100.862677 118.111356 
L 103.007424 118.390424 
L 105.152172 118.375666 
L 107.296919 118.659801 
L 109.441667 119.107269 
L 111.586414 119.444424 
L 113.731162 119.928275 
L 115.875909 120.059454 
L 118.020657 120.143725 
L 120.165404 119.985516 
L 122.310152 120.37149 
L 124.454899 120.606581 
L 126.599646 120.936375 
L 128.744394 121.166412 
L 130.889141 121.289369 
L 133.033889 121.404799 
L 135.178636 121.689207 
L 137.323384 121.75656 
L 139.468131 121.741419 
L 141.612879 121.870275 
L 143.757626 121.947703 
L 145.902374 121.96203 
L 148.047121 122.172322 
L 150.191869 122.248238 
L 152.336616 122.451591 
L 154.481364 122.362869 
L 156.626111 122.42285 
L 158.770859 122.628219 
L 160.915606 122.593841 
L 163.060354 122.986839 
L 165.205101 122.853298 
L 167.349848 122.954769 
L 169.494596 122.994214 
L 171.639343 122.889724 
L 173.784091 122.909016 
L 175.928838 123.031638 
L 178.073586 123.05386 
L 180.218333 123.273339 
L 182.363081 123.490522 
L 184.507828 123.4532 
L 186.652576 123.399339 
L 188.797323 123.313157 
L 190.942071 123.370484 
L 193.086818 123.507013 
L 195.231566 123.541551 
L 197.376313 123.583623 
L 199.521061 123.599475 
L 201.665808 123.726982 
L 203.810556 123.928072 
L 205.955303 123.722844 
L 208.100051 123.66918 
L 210.244798 123.662362 
L 212.389545 123.681233 
L 214.534293 123.644651 
L 216.67904 123.601753 
L 218.823788 123.867577 
L 220.968535 123.863106 
L 223.113283 124.003668 
L 225.25803 124.103821 
L 227.402778 124.045071 
L 229.547525 124.042258 
L 231.692273 124.094581 
L 233.83702 124.052721 
L 235.981768 124.197823 
L 238.126515 124.135444 
L 240.271263 124.212037 
L 242.41601 124.167848 
L 244.560758 124.272365 
L 246.705505 124.294139 
L 248.850253 124.290616 
L 250.995 124.28067 
" clip-path="url(#p960dbf2274)" style="fill: none; stroke-dasharray: 3,1,1,1; stroke-dashoffset: 0; stroke: #6c6c6c"/>
   </g>
   <g id="line2d_16">
    <path d="M 38.665 53.325382 
L 40.809747 74.671691 
L 42.954495 87.535247 
L 45.099242 95.22931 
L 47.24399 101.727731 
L 49.388737 103.931682 
L 51.533485 107.023892 
L 53.678232 109.01622 
L 55.82298 111.116704 
L 57.967727 112.361884 
L 60.112475 112.664426 
L 62.257222 114.133178 
L 64.40197 115.564048 
L 66.546717 115.656386 
L 68.691465 116.586841 
L 70.836212 116.937486 
L 72.98096 117.505767 
L 75.125707 117.942383 
L 77.270455 118.100102 
L 79.415202 118.102131 
L 81.559949 118.463141 
L 83.704697 118.422264 
L 85.849444 118.778089 
L 87.994192 119.058441 
L 90.138939 119.387148 
L 92.283687 119.631821 
L 94.428434 119.464191 
L 96.573182 119.988086 
L 98.717929 120.121841 
L 100.862677 120.206453 
L 103.007424 120.136802 
L 105.152172 120.542984 
L 107.296919 120.321242 
L 109.441667 120.150669 
L 111.586414 120.162408 
L 113.731162 120.910386 
L 115.875909 121.083311 
L 118.020657 121.436704 
L 120.165404 121.338272 
L 122.310152 120.843051 
L 124.454899 120.874342 
L 126.599646 120.965217 
L 128.744394 121.094966 
L 130.889141 121.361884 
L 133.033889 121.130422 
L 135.178636 121.475877 
L 137.323384 121.407976 
L 139.468131 121.11422 
L 141.612879 121.027659 
L 143.757626 121.490992 
L 145.902374 121.352992 
L 148.047121 121.686413 
L 150.191869 121.640003 
L 152.336616 121.541943 
L 154.481364 121.685642 
L 156.626111 121.629482 
L 158.770859 121.856955 
L 160.915606 122.022854 
L 163.060354 121.913801 
L 165.205101 121.996445 
L 167.349848 122.098086 
L 169.494596 121.910185 
L 171.639343 122.145393 
L 173.784091 122.29923 
L 175.928838 122.39484 
L 178.073586 122.110669 
L 180.218333 122.128303 
L 182.363081 122.274941 
L 184.507828 122.558992 
L 186.652576 122.342641 
L 188.797323 122.598 
L 190.942071 122.437367 
L 193.086818 122.255242 
L 195.231566 122.452127 
L 197.376313 122.488592 
L 199.521061 122.594066 
L 201.665808 122.429348 
L 203.810556 122.566912 
L 205.955303 122.435958 
L 208.100051 122.595947 
L 210.244798 122.137338 
L 212.389545 122.328377 
L 214.534293 122.29934 
L 216.67904 122.450668 
L 218.823788 122.432255 
L 220.968535 122.636331 
L 223.113283 122.535228 
L 225.25803 122.686963 
L 227.402778 122.582461 
L 229.547525 122.641413 
L 231.692273 122.888394 
L 233.83702 122.764558 
L 235.981768 122.821636 
L 238.126515 122.776757 
L 240.271263 122.871819 
L 242.41601 122.786378 
L 244.560758 122.489857 
L 246.705505 122.647142 
L 248.850253 122.599636 
L 250.995 122.843416 
" clip-path="url(#p960dbf2274)" style="fill: none; stroke: #515151; stroke-linecap: square"/>
   </g>
   <g id="line2d_17">
    <path d="M 38.665 100.625135 
L 250.995 100.625135 
" clip-path="url(#p960dbf2274)" style="fill: none; stroke-dasharray: 1.6,1.6; stroke-dashoffset: 0; stroke: #000000; stroke-width: 0.8"/>
   </g>
   <g id="patch_3">
    <path d="M 38.665 130.76 
L 38.665 7.2 
" style="fill: none; stroke: #000000; stroke-width: 0.8; stroke-linejoin: miter; stroke-linecap: square"/>
   </g>
   <g id="patch_4">
    <path d="M 38.665 130.76 
L 250.995 130.76 
" style="fill: none; stroke: #000000; stroke-width: 0.8; stroke-linejoin: miter; stroke-linecap: square"/>
   </g>
   <g id="legend_1">
    <g id="line2d_18">
     <path d="M 203.531719 14.268906 
L 210.531719 14.268906 
L 217.531719 14.268906 
" style="fill: none; stroke: #d9d9d9; stroke-linecap: square"/>
    </g>
    <g id="text_13">
     <!-- n=8 -->
     <g transform="translate(223.131719 16.718906) scale(0.07 -0.07)">
      <defs>
       <path id="DejaVuSans-3d" d="M 678 2906 
L 4684 2906 
L 4684 2381 
L 678 2381 
L 678 2906 
z
M 678 1631 
L 4684 1631 
L 4684 1100 
L 678 1100 
L 678 1631 
z
" transform="scale(0.015625)"/>
      </defs>
      <use xlink:href="#DejaVuSans-6e"/>
      <use xlink:href="#DejaVuSans-3d" transform="translate(63.378906 0)"/>
      <use xlink:href="#DejaVuSans-38" transform="translate(147.167969 0)"/>
     </g>
    </g>
    <g id="line2d_19">
     <path d="M 203.531719 24.543594 
L 210.531719 24.543594 
L 217.531719 24.543594 
" style="fill: none; stroke-dasharray: 3.7,1.6; stroke-dashoffset: 0; stroke: #c3c3c3"/>
    </g>
    <g id="text_14">
     <!-- n=16 -->
     <g transform="translate(223.131719 26.993594) scale(0.07 -0.07)">
      <use xlink:href="#DejaVuSans-6e"/>
      <use xlink:href="#DejaVuSans-3d" transform="translate(63.378906 0)"/>
      <use xlink:href="#DejaVuSans-31" transform="translate(147.167969 0)"/>
      <use xlink:href="#DejaVuSans-36" transform="translate(210.791016 0)"/>
     </g>
    </g>
    <g id="line2d_20">
     <path d="M 203.531719 34.818281 
L 210.531719 34.818281 
L 217.531719 34.818281 
" style="fill: none; stroke-dasharray: 6.4,1.6,1,1.6; stroke-dashoffset: 0; stroke: #a5a5a5"/>
    </g>
    <g id="text_15">
     <!-- n=32 -->
     <g transform="translate(223.131719 37.268281) scale(0.07 -0.07)">
      <defs>
       <path id="DejaVuSans-33" d="M 2597 2516 
Q 3050 2419 3304 2112 
Q 3559 1806 3559 1356 
Q 3559 666 3084 287 
Q 2609 -91 1734 -91 
Q 1441 -91 1130 -33 
Q 819 25 488 141 
L 488 750 
Q 750 597 1062 519 
Q 1375 441 1716 441 
Q 2309 441 2620 675 
Q 2931 909 2931 1356 
Q 2931 1769 2642 2001 
Q 2353 2234 1838 2234 
L 1294 2234 
L 1294 2753 
L 1863 2753 
Q 2328 2753 2575 2939 
Q 2822 3125 2822 3475 
Q 2822 3834 2567 4026 
Q 2313 4219 1838 4219 
Q 1578 4219 1281 4162 
Q 984 4106 628 3988 
L 628 4550 
Q 988 4650 1302 4700 
Q 1616 4750 1894 4750 
Q 2613 4750 3031 4423 
Q 3450 4097 3450 3541 
Q 3450 3153 3228 2886 
Q 3006 2619 2597 2516 
z
" transform="scale(0.015625)"/>
      </defs>
      <use xlink:href="#DejaVuSans-6e"/>
      <use xlink:href="#DejaVuSans-3d" transform="translate(63.378906 0)"/>
      <use xlink:href="#DejaVuSans-33" transform="translate(147.167969 0)"/>
      <use xlink:href="#DejaVuSans-32" transform="translate(210.791016 0)"/>
     </g>
    </g>
    <g id="line2d_21">
     <path d="M 203.531719 45.092969 
L 210.531719 45.092969 
L 217.531719 45.092969 
" style="fill: none; stroke-dasharray: 1,1.65; stroke-dashoffset: 0; stroke: #888888"/>
    </g>
    <g id="text_16">
     <!-- n=64 -->
     <g transform="translate(223.131719 47.542969) scale(0.07 -0.07)">
      <use xlink:href="#DejaVuSans-6e"/>
      <use xlink:href="#DejaVuSans-3d" transform="translate(63.378906 0)"/>
      <use xlink:href="#DejaVuSans-36" transform="translate(147.167969 0)"/>
      <use xlink:href="#DejaVuSans-34" transform="translate(210.791016 0)"/>
     </g>
    </g>
    <g id="line2d_22">
     <path d="M 203.531719 55.367656 
L 210.531719 55.367656 
L 217.531719 55.367656 
" style="fill: none; stroke-dasharray: 3,1,1,1; stroke-dashoffset: 0; stroke: #6c6c6c"/>
    </g>
    <g id="text_17">
     <!-- n=128 -->
     <g transform="translate(223.131719 57.817656) scale(0.07 -0.07)">
      <use xlink:href="#DejaVuSans-6e"/>
      <use xlink:href="#DejaVuSans-3d" transform="translate(63.378906 0)"/>
      <use xlink:href="#DejaVuSans-31" transform="translate(147.167969 0)"/>
      <use xlink:href="#DejaVuSans-32" transform="translate(210.791016 0)"/>
      <use xlink:href="#DejaVuSans-38" transform="translate(274.414062 0)"/>
     </g>
    </g>
    <g id="line2d_23">
     <path d="M 203.531719 65.642344 
L 210.531719 65.642344 
L 217.531719 65.642344 
" style="fill: none; stroke: #515151; stroke-linecap: square"/>
    </g>
    <g id="text_18">
     <!-- n=256 -->
     <g transform="translate(223.131719 68.092344) scale(0.07 -0.07)">
      <use xlink:href="#DejaVuSans-6e"/>
      <use xlink:href="#DejaVuSans-3d" transform="translate(63.378906 0)"/>
      <use xlink:href="#DejaVuSans-32" transform="translate(147.167969 0)"/>
      <use xlink:href="#DejaVuSans-35" transform="translate(210.791016 0)"/>
      <use xlink:href="#DejaVuSans-36" transform="translate(274.414062 0)"/>
     </g>
    </g>
   </g>
  </g>
 </g>
 <defs>
  <clipPath id="p960dbf2274">
   <rect x="38.665" y="7.2" width="212.33" height="123.56"/>
  </clipPath>
 </defs>
</svg>
